<svg width="113" height="101" viewBox="0 0 113 101" fill="none" xmlns="http://www.w3.org/2000/svg">
<g clip-path="url(#clip0_14_43)">
<path d="M92.9056 32.7027C91.7031 32.2887 90.4904 31.9051 89.2687 31.5523C89.4739 30.7106 89.6628 29.8792 89.8306 29.0623C92.5838 15.6484 90.7839 4.8418 84.6361 1.28376C78.7416 -2.1272 69.1016 1.4295 59.3659 9.93344C58.4064 10.773 57.4682 11.6368 56.5522 12.524C55.9389 11.9341 55.3149 11.3556 54.6803 10.7888C44.4767 1.69618 34.2493 -2.13606 28.1081 1.43216C22.2189 4.85376 20.475 15.0127 22.9538 27.7254C23.2004 28.9844 23.4788 30.237 23.7888 31.4819C22.3412 31.8947 20.9442 32.3342 19.6073 32.802C7.64443 36.9881 0.00476074 43.5483 0.00476074 50.3529C0.00476074 57.3808 8.20629 64.43 20.6662 68.7044C21.6763 69.0495 22.6949 69.3692 23.7209 69.6634C23.3877 71.0042 23.0918 72.354 22.8337 73.7114C20.4706 86.2035 22.316 96.1223 28.1893 99.5222C34.2555 103.033 44.437 99.4248 54.3506 90.7268C55.1545 90.0197 55.9407 89.2925 56.7084 88.546C57.7004 89.5066 58.7189 90.4393 59.7627 91.343C69.366 99.6365 78.8502 102.985 84.7177 99.5762C90.7782 96.055 92.748 85.3995 90.1907 72.4356C89.9893 71.42 89.7634 70.4094 89.5132 69.4047C90.2282 69.1921 90.93 68.9733 91.6141 68.7456C104.567 64.4384 112.995 57.4748 112.995 50.3529C112.995 43.5235 105.109 36.919 92.9056 32.7027ZM90.0963 64.1474C89.4783 64.3525 88.8445 64.5505 88.1984 64.7432C86.7683 60.1995 84.8387 55.3684 82.4769 50.3764C84.7305 45.5036 86.586 40.734 87.9759 36.22C89.1319 36.5558 90.2534 36.9097 91.3347 37.2832C101.791 40.8961 108.169 46.2372 108.169 50.3529C108.169 54.7367 101.281 60.4277 90.0963 64.1474ZM85.4557 73.3765C86.5865 79.1087 86.7476 84.2916 85.9986 88.3435C85.3259 91.9844 83.9727 94.4115 82.299 95.3839C78.7385 97.4526 71.1235 94.7637 62.911 87.6707C61.9401 86.8305 60.9927 85.9634 60.0699 85.0703C63.2539 81.5757 66.4358 77.5131 69.5412 73.0009C75.0036 72.5145 80.1641 71.7189 84.844 70.6331C85.0694 71.5426 85.2734 72.4573 85.4557 73.3765ZM38.5257 95.0264C35.0469 96.2592 32.2759 96.2946 30.6009 95.3254C27.0369 93.2624 25.5552 85.298 27.5762 74.6151C27.8165 73.3527 28.0916 72.0972 28.4012 70.8502C33.0294 71.8779 38.1523 72.6168 43.6275 73.0624C46.7542 77.4776 50.0278 81.5358 53.3271 85.0894C52.6259 85.7703 51.9082 86.4338 51.1745 87.0793C46.7904 90.9252 42.3974 93.654 38.5257 95.0264ZM22.2277 64.1204C16.7181 62.2302 12.168 59.7738 9.04931 57.0933C6.24661 54.6849 4.83202 52.2932 4.83202 50.3529C4.83202 46.2234 10.9657 40.9564 21.1962 37.3766C22.4378 36.9425 23.7372 36.5328 25.0856 36.1483C26.4997 40.7641 28.3544 45.5904 30.5926 50.4708C28.3252 55.4233 26.4441 60.3267 25.0163 64.997C24.0798 64.7278 23.15 64.4355 22.2277 64.1204ZM27.691 26.7947C25.5676 15.9031 26.9777 7.68707 30.5268 5.62499C34.3067 3.42868 42.6653 6.56013 51.4755 14.4115C52.05 14.9247 52.6152 15.4482 53.1708 15.9819C49.8879 19.52 46.6443 23.5481 43.5454 27.9371C38.2313 28.4315 33.1446 29.2253 28.4678 30.2889C28.1797 29.1311 27.9206 27.9661 27.691 26.7951V26.7947ZM76.4301 38.8739C75.3255 36.9589 74.1799 35.0679 72.9941 33.2024C76.5992 33.66 80.0533 34.2673 83.297 35.0098C82.3233 38.1426 81.1095 41.4175 79.6808 44.7753C78.6365 42.7867 77.5527 40.8191 76.4301 38.8739ZM56.5544 19.4443C58.7806 21.8652 61.0104 24.5678 63.2036 27.5003C58.7546 27.2895 54.2982 27.2886 49.8491 27.4977C52.0445 24.5922 54.2932 21.8931 56.5544 19.4443ZM36.5511 38.9071C35.4425 40.8367 34.3789 42.792 33.3613 44.7713C31.956 41.4255 30.7532 38.1355 29.7712 34.9584C32.9949 34.2346 36.4328 33.6427 40.0149 33.1936C38.8159 35.0705 37.661 36.9754 36.5511 38.9067V38.9071ZM40.1178 67.8569C36.4169 67.4423 32.9274 66.8811 29.7045 66.1767C30.702 62.9429 31.9312 59.5829 33.367 56.1653C34.3887 58.1461 35.4567 60.1026 36.57 62.0331C37.7149 64.0176 38.9005 65.9614 40.1178 67.8569ZM56.6877 81.6027C54.3996 79.1255 52.1177 76.3848 49.8892 73.4372C52.0528 73.5222 54.2584 73.5657 56.5001 73.5657C58.8031 73.5657 61.0797 73.5138 63.3206 73.4137C61.1203 76.4145 58.8989 79.1592 56.6877 81.6027ZM79.7263 55.9908C81.2366 59.446 82.5096 62.7883 83.5203 65.9667C80.2444 66.7171 76.7073 67.3214 72.9804 67.7701C74.1746 65.87 75.3311 63.9462 76.4491 61.9998C77.5858 60.0215 78.6784 58.0179 79.7263 55.9908ZM72.268 59.5794C70.5565 62.5635 68.7487 65.4909 66.8475 68.3571C63.4038 68.6019 59.9525 68.7235 56.5001 68.7216C52.9837 68.7216 49.5635 68.6118 46.27 68.3974C44.3193 65.5378 42.477 62.6053 40.7472 59.6059H40.7476C39.0259 56.6225 37.4177 53.5745 35.9265 50.4685C37.4139 47.3619 39.0172 44.3124 40.733 41.3267L40.7326 41.3272C42.4478 38.3407 44.2753 35.4206 46.2113 32.5734C49.5715 32.3182 53.0172 32.1853 56.4996 32.1853H56.5001C59.9984 32.1853 63.4486 32.3196 66.8078 32.5765C68.7243 35.4195 70.5402 38.3295 72.2521 41.301C73.9736 44.2802 75.5982 47.3147 77.1231 50.3999C75.6138 53.5166 73.9944 56.5784 72.268 59.5794ZM82.2253 5.48058C86.0087 7.67068 87.4803 16.5024 85.103 28.0842C84.9512 28.8231 84.7808 29.5757 84.5955 30.339C79.9072 29.2528 74.8169 28.4452 69.4874 27.9433C66.3828 23.506 63.1656 19.4717 59.9361 15.9793C60.7825 15.1604 61.6491 14.3628 62.5349 13.5872C70.8768 6.30142 78.6732 3.4247 82.2253 5.48058ZM56.5001 40.2263C62.0724 40.2263 66.5898 44.7603 66.5898 50.3529C66.5898 55.9456 62.0724 60.4795 56.5001 60.4795C50.9278 60.4795 46.4104 55.9456 46.4104 50.3529C46.4104 44.7603 50.9278 40.2263 56.5001 40.2263Z" fill="#00D8FF"/>
</g>
<defs>
<clipPath id="clip0_14_43">
<rect width="113" height="101" fill="white"/>
</clipPath>
</defs>
</svg>
